<svg xmlns="http://www.w3.org/2000/svg" id="art" width="248.753" height="164.035" viewBox="0 0 248.753 164.035"><defs><style>.cls-1{stroke-width:1.0817px}.cls-1,.cls-10,.cls-11,.cls-12,.cls-13,.cls-2,.cls-3,.cls-4,.cls-5,.cls-6,.cls-7,.cls-8,.cls-9{stroke-linecap:round;stroke-linejoin:round}.cls-1,.cls-5,.cls-6,.cls-7{stroke:#000}.cls-1,.cls-12,.cls-14{fill:#181225}.cls-10,.cls-11,.cls-12,.cls-13,.cls-2,.cls-3,.cls-4,.cls-8,.cls-9{stroke:#181225}.cls-15,.cls-2{fill:#dca8e5}.cls-3{stroke-dasharray:5.2405 5.2405}.cls-13,.cls-3,.cls-4{fill:none}.cls-10,.cls-12,.cls-13,.cls-3,.cls-5,.cls-6,.cls-7,.cls-8{stroke-width:.9118px}.cls-5{fill:#ff45a9}.cls-10,.cls-16,.cls-6{fill:#9f87ff}.cls-7{fill:#feb91a}.cls-8,.cls-9{fill:#fff}.cls-16{opacity:.5}.cls-11{fill:#4e299b}</style></defs><polygon points="248.753 152.463 0 138.491 5.711 4.003 245.909 0 248.753 152.463" class="cls-15"/><path d="M225.0419,41.6749l-8.75,68.52-36.9,53.34L40.6319,117.7249l-10.5099-79.06-1.16-8.73c-.23-1.75,1.15-3.25,2.84-3.25h.02l64.83-3.86c1.37-.08,2.73-.03,4.09.14l121.65,15.29c1.68.21,2.87,1.7401,2.65,3.42Z" class="cls-2"/><path d="M191.7219,56.1649l-12.33,107.37L40.6319,117.7249l-10.5099-79.06-1.16-8.73c-.23-1.75,1.15-3.25,2.84-3.25h.02c.15,0,156.97,25.62,156.97,25.62,1.85.3,3.14,2,2.93,3.86Z" class="cls-8"/><polygon points="30.124 38.663 190.244 69.053 188.53 83.973 31.818 50.508 30.124 38.663" class="cls-16"/><polygon points="156.374 127.983 159.104 125.093 169.164 114.433 182.774 100.013 183.774 88.843 176.664 95.593 157.094 114.153 156.374 127.983" class="cls-15"/><polygon points="183.774 88.843 176.664 95.593 157.094 114.153 157.094 111.883 62.094 87.343 103.654 71.843 183.774 88.843" class="cls-10"/><path d="M47.7787,77.9194l-.0869-1.4685c-.0469-.7926.6927-1.4007,1.4613-1.2014l3.792.9831c.5159.1338.8762.5994.8762,1.1323v1.5685c0,.7802-.7492,1.3417-1.498,1.1228l-3.7051-1.0831c-.4743-.1387-.8103-.5604-.8395-1.0537Z" class="cls-15"/><polygon points="155.401 113.209 154.483 133.633 58.183 105.603 56.444 87.557 155.401 113.209" class="cls-16"/><polygon points="103.654 122.093 178.904 143.383 177.644 157.573 103.654 134.603 103.654 122.093" class="cls-16"/><polygon points="159.104 125.093 180.074 130.363 181.224 117.483 169.574 114.933 169.164 114.433 159.104 125.093" class="cls-16"/><path d="M191.7239,56.1627l-1.48,12.89L30.1239,38.6627l-1.16-8.73c-.25-1.91,1.41-3.52,3.31-3.21l156.52,25.58c1.85.3,3.14,2,2.93,3.86Z" class="cls-11"/><ellipse cx="61.132" cy="115.377" class="cls-14" rx="1.556" ry="1.871" transform="translate(-43.9054 37.8133) rotate(-25.6397)"/><polygon points="183.774 88.843 176.664 95.593 106.394 79.513 103.654 71.843 183.774 88.843" class="cls-12"/><ellipse cx="35.377" cy="34.095" class="cls-5" rx="2.361" ry="2.84" transform="translate(-12.9979 25.5) rotate(-33.8675)"/><ellipse cx="44.096" cy="35.507" class="cls-7" rx="2.361" ry="2.84" transform="translate(-12.3053 30.5982) rotate(-33.8675)"/><ellipse cx="53.011" cy="37.187" class="cls-6" rx="2.361" ry="2.84" transform="translate(-11.7289 35.8514) rotate(-33.8675)"/><line x1="31.818" x2="188.53" y1="50.508" y2="83.973" class="cls-13"/><line x1="36.87" x2="55.609" y1="47.868" y2="51.809" class="cls-13"/><line x1="105.06" x2="115.08" y1="62.35" y2="64.432" class="cls-13"/><line x1="133.949" x2="143.449" y1="68.596" y2="70.548" class="cls-13"/><line x1="154.483" x2="162.544" y1="72.967" y2="74.64" class="cls-13"/><line x1="174.408" x2="180.872" y1="77.226" y2="78.518" class="cls-13"/><path d="M39.8298,58.543l6.1682,1.4658c.7736.2189,1.3044.9291,1.2954,1.733l-.0237,2.1081c-.013,1.1556-1.0996,1.38-2.2185,1.091l-5.2664-1.3602c-.7391-.1909-1.2742-.8317-1.3303-1.5929l-.152-2.0634c-.0117-.8926.3614-1.5922,1.5274-1.3815Z" class="cls-13"/><polyline points="42.81 64.362 43.735 75.887 47.727 77.045" class="cls-13"/><path d="M47.7787,77.9194l-.0869-1.4685c-.0469-.7926.6927-1.4007,1.4613-1.2014l3.792.9831c.5159.1338.8762.5994.8762,1.1323v1.5685c0,.7802-.7492,1.3417-1.498,1.1228l-3.7051-1.0831c-.4743-.1387-.8103-.5604-.8395-1.0537Z" class="cls-13"/><line x1="50.755" x2="53.418" y1="79.598" y2="117.38" class="cls-13"/><line x1="182.779" x2="156.37" y1="100.016" y2="127.985" class="cls-13"/><polygon points="155.401 113.209 154.483 133.633 58.183 105.603 56.444 87.557 155.401 113.209" class="cls-13"/><polygon points="154.483 133.633 156.224 131.24 157.092 111.885 58.373 86.384 56.444 87.557 155.401 113.209 154.483 133.633" class="cls-13"/><line x1="106.394" x2="96.917" y1="79.513" y2="83.973" class="cls-13"/><polygon points="182.774 100.013 181.224 117.483 180.074 130.363 178.904 143.383 177.644 157.573 103.654 134.603 103.654 118.833 154.484 133.633 156.224 131.243 156.374 127.983 159.104 125.093 169.164 114.433 182.774 100.013" class="cls-13"/><line x1="182.779" x2="183.774" y1="100.016" y2="88.843" class="cls-13"/><polygon points="103.654 122.093 178.904 143.383 177.644 157.573 103.654 134.603 103.654 122.093" class="cls-13"/><polygon points="159.104 125.093 180.074 130.363 181.224 117.483 168.808 114.81 159.104 125.093" class="cls-13"/><line x1="61.132" x2="53.079" y1="115.377" y2="112.571" class="cls-13"/><line x1="52.213" x2="57.84" y1="100.282" y2="102.042" class="cls-13"/><line x1="51.422" x2="56.737" y1="89.061" y2="90.59" class="cls-13"/><polyline points="93.273 77.872 111.782 92.215 108.892 99.434" class="cls-13"/><polyline points="100.846 97.356 111.782 92.215 69.787 87.557" class="cls-13"/><line x1="111.782" x2="86.535" y1="92.215" y2="81.743" class="cls-13"/><polyline points="110.624 95.108 108.258 93.871 106.394 91.617" class="cls-13"/><line x1="103.152" x2="105.923" y1="91.257" y2="94.969" class="cls-13"/><line x1="103.654" x2="109.454" y1="96.036" y2="98.031" class="cls-13"/><polyline points="95.749 90.436 96.917 86.049 102.004 84.638" class="cls-13"/><line x1="103.654" x2="101.335" y1="85.916" y2="87.881" class="cls-13"/><line x1="90.784" x2="92.157" y1="89.886" y2="95.108" class="cls-13"/><line x1="97.849" x2="101.655" y1="90.669" y2="96.975" class="cls-13"/><polyline points="84.472 89.186 90.784 83.505 96.917 80.695" class="cls-13"/><line x1="93.014" x2="88.558" y1="84.43" y2="89.639" class="cls-13"/><path d="M92.1465,103.8796l-2.5745,1.376c-1.524.8145-1.2989,3.0658.3562,3.5625l19.9558,5.9891c1.1817.3546,2.4627.0789,3.3938-.7305l.9585-.8332c1.0638-.9247.6817-2.6603-.6721-3.0527l-.5738-.1664c-.57-.1653-1.1849-.0355-1.6396.346l-1.8971,1.5917-16.6969-4.9244,1.3517-.8856c.8648-.5666.6595-1.888-.3364-2.1656l-.7352-.2049c-.2983-.0831-.6171-.0481-.8902.0979Z" class="cls-8"/><g><path d="M127.9174,93.3627s-.9009-.5501-1.9021-1.6094" class="cls-13"/><path d="M123.5364,87.2087c-.4417-2.0814-.1553-4.6617,1.7376-7.696,5.5273-8.8607,8.251-11.9848-.3204-14.3079s-7.1273-8.3185-2.4032-13.2176c6.4886-6.729,7.7004-11.9414,5.6272-16.4801-2.9639-6.4886-8.6585-4.6085-10.3741-10.2761-.3413-1.1273-.5446-2.1006-.6486-2.9386" class="cls-3"/><path d="M117.166,19.673c.2851-1.6777,1.0822-2.1977,1.0822-2.1977" class="cls-13"/></g><g><ellipse cx="123.269" cy="15.5" class="cls-1" rx="2.285" ry="2.081"/><path d="M122.4394,13.4186s-14.5809-2.2361-12.0812-7.2164c2.1654-4.3143,12.0812,7.2164,12.0812,7.2164Z" class="cls-9"/><path d="M122.4394,13.4186s1.7631-14.042,5.8578-12.0726c4.5396,2.1834-5.8578,12.0726-5.8578,12.0726Z" class="cls-9"/></g><path d="M31.8179,26.6842c.1498.0008.3021.0133.456.0384l156.52,25.58c1.85.3,3.14,2,2.93,3.86l-12.33,107.37" class="cls-4"/></svg>