<svg xmlns="http://www.w3.org/2000/svg" width="312" height="172" fill="none"><path fill="#fff" stroke="#FF7738" stroke-width="1.5" d="M112.5 169.4 257 171l-1.1-148.6L110 22l2.5 147.4z"/><path fill="#C1B2DD" d="M112 24h143l-.8 45H112V24z"/><path fill="#5A4A79" d="M112 145h142l-.8 23H112v-23z"/><rect width="76" height="2" x="146" y="86" fill="#3E2C73" rx="1"/><rect width="76" height="2" x="146" y="91" fill="#3E2C73" rx="1"/><rect width="76" height="2" x="146" y="81" fill="#3E2C73" rx="1"/><rect width="32" height="11" x="168" y="105" fill="#3E2C73" rx="1"/><rect width="11" height="1" x="179" y="110" fill="#fff" rx=".5"/><path fill="#5A4A79" d="M172 44a1 1 0 0 1 1-1h22a1 1 0 0 1 0 2h-22a1 1 0 0 1-1-1z"/><rect width="65" height="4" x="151" y="52" fill="#5A4A79" rx="2"/><path stroke="#3E2C73" stroke-width=".8" d="m254 167.6-142 .4 1.8-142.7 140-1.3.2 143.6z"/><path fill="#fff" stroke="#FF7738" stroke-width="1.5" d="M153.4 148.4 298 150 296.9 1.4 151 1l2.5 147.4z"/><path fill="#C1B2DD" d="M153 3h143l-.8 45H153V3z"/><path fill="#5A4A79" d="M153 124h142l-.8 23H153v-23z"/><rect width="76" height="2" x="187" y="65" fill="#3E2C73" rx="1"/><rect width="76" height="2" x="187" y="70" fill="#3E2C73" rx="1"/><rect width="76" height="2" x="187" y="60" fill="#3E2C73" rx="1"/><rect width="32" height="11" x="209" y="84" fill="#3E2C73" rx="1"/><rect width="11" height="1" x="220" y="89" fill="#fff" rx=".5"/><path fill="#5A4A79" d="M213 23a1 1 0 0 1 1-1h22a1 1 0 0 1 0 2h-22a1 1 0 0 1-1-1z"/><rect width="65" height="4" x="192" y="31" fill="#5A4A79" rx="2"/><path stroke="#3E2C73" stroke-width=".8" d="m295 146.6-142 .4 1.8-142.7 140-1.3.2 143.6z"/><path stroke="#FF7738" stroke-width="1.5" d="M100 122.9 1 123l1.3-58.5 97.6-.5.1 58.9z"/><path fill="#EDE7F5" stroke="#3E2C73" stroke-width=".8" d="M99 121.9 3.2 121V65.5H98l1 56.4z"/><path stroke="#3E2C73" stroke-width=".8" d="m3 66 48.3 35L98 66M3 120.5 37 91m61.5 30L66 90"/><path stroke="#FF7738" stroke-width="1.5" d="m122 140.9-99 .1 1.3-58.5 97.6-.5.1 58.9z"/><path fill="#EDE7F5" stroke="#3E2C73" stroke-width=".8" d="m121 139.9-95.8-.9V83.5H120l1 56.4z"/><path stroke="#3E2C73" stroke-width=".8" d="m25 84 48.3 35L120 84m-95 54.5L59 109m61.5 30L88 108"/><path fill="#FF7738" d="m302 119-14 1-9 13 .5 11 8.5 10.5h13.5L311 144l.5-15-9.5-10z"/><circle cx="294.5" cy="144" r="1" fill="#3E2C73"/><rect width="2" height="15" x="293.5" y="126" fill="#3E2C73" rx="1"/></svg>